# xmcd CD database file
#
# Track frame offsets:
#	150
#	11935
#	28132
#	44437
#	55982
#	72575
#	89132
#	107265
#	128860
#	145137
#	160397
#	173870
#	190717
#
# Disc length: 2918 seconds
#
# Revision: 0
# Processed by: cddbd v1.5.2PL0 Copyright (c) Steve Scherf et al.
# Submitted via: CDex 1.70beta2
#
DISCID=bd0b640d
DTITLE=Gentes, Diane - Cdn. - A Lifetime To Cry
DYEAR=2000
DGENRE=Country
TTITLE0=That's All It Took
TTITLE1=The Bridge
TTITLE2=Go Your Own Way
TTITLE3=Withoutr You
TTITLE4=I Wish You Were Here
TTITLE5=Nothing Left To Learn
TTITLE6=Standing At the Crossroads
TTITLE7=The Mention of Yoiur Name
TTITLE8=The Last Blue Noon
TTITLE9=A Lifetime Left To Cry
TTITLE10=Brand New Way of Loving
TTITLE11=The Courage To Say Goodbye
TTITLE12=Don't Look For Her Heart
EXTD=YEAR: 2000
EXTT0=
EXTT1=
EXTT2=
EXTT3=
EXTT4=
EXTT5=
EXTT6=
EXTT7=
EXTT8=
EXTT9=
EXTT10=
EXTT11=
EXTT12=
PLAYORDER=
